<?xml version="1.0" standalone="no"?>
<!DOCTYPE svg PUBLIC "-//W3C//DTD SVG 20010904//EN"
 "http://www.w3.org/TR/2001/REC-SVG-20010904/DTD/svg10.dtd">
<svg version="1.0" xmlns="http://www.w3.org/2000/svg"
 width="700.000000pt" height="700.000000pt" viewBox="0 0 700.000000 700.000000"
 preserveAspectRatio="xMidYMid meet">
<metadata>
Created by potrace 1.14, written by Peter Selinger 2001-2017
</metadata>
<g transform="translate(0.000000,700.000000) scale(0.100000,-0.100000)"
fill="#000000" stroke="none">
<path d="M365 6981 c-131 -37 -243 -126 -304 -240 -64 -121 -60 131 -60 -3221
-1 -1943 3 -3077 9 -3115 30 -184 191 -352 375 -391 48 -11 652 -13 3111 -14
1997 0 3070 3 3105 10 132 24 274 129 337 248 67 126 62 -140 61 3247 0 2647
-2 3077 -15 3124 -45 169 -180 304 -353 355 -49 14 -348 16 -3130 15 -2880 0
-3080 -2 -3136 -18z"/>
</g>
</svg>
