<svg width="170" height="170" viewBox="0 0 170 170" fill="none" xmlns="http://www.w3.org/2000/svg">
<rect width="170" height="170" fill="#288FA2"/>
<path d="M82.0473 38.0009C81.4714 38.0049 80.8864 38.0117 80.7469 38.0168C80.6078 38.0218 80.1744 38.0425 79.7843 38.0624C79.3942 38.0823 78.8091 38.1208 78.4839 38.1482C78.1589 38.1759 77.6118 38.2289 77.2679 38.2668C76.9244 38.3046 76.3694 38.3732 76.035 38.4195C75.7006 38.4658 75.0771 38.563 74.6491 38.6356C74.2215 38.7086 73.6365 38.8153 73.3487 38.8731C73.0613 38.9305 72.5907 39.0308 72.3027 39.0957C72.0149 39.1606 71.4823 39.2885 71.1198 39.3804C70.757 39.4723 70.1697 39.6307 69.8144 39.7324C69.459 39.8337 68.8514 40.0178 68.464 40.1411C68.0766 40.264 67.4027 40.494 66.966 40.6521C66.5296 40.8102 65.8757 41.0581 65.5136 41.203C65.1515 41.3483 64.6269 41.5651 64.3483 41.685C64.0696 41.8049 63.568 42.0296 63.2337 42.1843C62.8993 42.339 62.2991 42.6311 61.8995 42.8341C61.5002 43.0368 60.9074 43.3482 60.5822 43.5258C60.2573 43.7035 59.7016 44.0197 59.3476 44.2281C58.9936 44.4365 58.4464 44.7702 58.1316 44.9694C57.8168 45.1684 57.2781 45.5224 56.9342 45.7554C56.5907 45.9885 56.059 46.3611 55.753 46.5833C55.447 46.8056 54.9346 47.1906 54.6147 47.4389C54.2948 47.6871 53.7169 48.1543 53.3305 48.4769C52.9437 48.7998 52.377 49.2895 52.0703 49.5655C51.7639 49.8414 51.105 50.4703 50.606 50.9635C50.1074 51.4563 49.4745 52.1028 49.1995 52.4001C48.9246 52.6973 48.5067 53.1607 48.2713 53.4303C48.0355 53.6995 47.6255 54.1859 47.3603 54.5112C47.0952 54.8361 46.6936 55.3434 46.4676 55.638C46.242 55.9325 45.8387 56.4797 45.5715 56.854C45.3047 57.2282 44.8659 57.8686 44.5967 58.2774C44.3275 58.6861 43.9023 59.3623 43.6516 59.7805C43.401 60.1983 43.0393 60.8215 42.8474 61.1654C42.6559 61.5092 42.2918 62.2006 42.0381 62.7022C41.7848 63.2038 41.4666 63.8574 41.3308 64.1546C41.195 64.4518 40.9859 64.923 40.866 65.2017C40.7458 65.4803 40.5563 65.9363 40.4441 66.215C40.3323 66.4936 40.1226 67.0408 39.9784 67.431C39.8338 67.8211 39.5909 68.5203 39.4383 68.9847C39.2859 69.4491 39.063 70.171 38.9431 70.5891C38.8232 71.0069 38.6351 71.7139 38.5249 72.1597C38.4148 72.6055 38.2703 73.2287 38.2041 73.5446C38.1376 73.8604 38.0463 74.3086 38.0014 74.541C37.9565 74.7731 37.8666 75.2824 37.8014 75.6725C37.7365 76.0626 37.6457 76.6706 37.5991 77.0236C37.5528 77.3766 37.4917 77.8782 37.4633 78.1382C37.4353 78.3983 37.3893 78.8769 37.3617 79.2022C37.334 79.5271 37.2921 80.0743 37.2688 80.4182C37.2424 80.8066 37.2262 81.7777 37.2262 82.9852C37.2262 84.1927 37.2424 85.1638 37.2688 85.5522C37.2921 85.8957 37.334 86.4429 37.3617 86.7682C37.3894 87.0931 37.4353 87.5721 37.4633 87.8322C37.4917 88.0923 37.5528 88.5939 37.5991 88.9468C37.6457 89.2998 37.7359 89.9 37.7997 90.281C37.8632 90.6617 37.9528 91.171 37.9987 91.4125C38.0443 91.654 38.1372 92.11 38.2047 92.4258C38.2723 92.7416 38.3871 93.2466 38.4594 93.5482C38.5317 93.8495 38.6533 94.3285 38.7293 94.6122C38.8053 94.8959 38.9522 95.4134 39.0559 95.7623C39.1593 96.1112 39.2383 96.401 39.2312 96.4061C39.2242 96.4111 38.8076 96.6334 38.306 96.8999C37.8045 97.1664 37.014 97.5967 36.5496 97.8561C36.0852 98.1159 35.3785 98.5188 34.979 98.7522C34.5798 98.9853 33.941 99.3683 33.5604 99.6031C33.1798 99.8382 32.6478 100.173 32.3782 100.347C32.109 100.52 31.7213 100.777 31.5169 100.916C31.3126 101.056 30.9934 101.276 30.8076 101.406C30.6218 101.537 30.2874 101.78 30.0645 101.947C29.8416 102.114 29.5072 102.372 29.3214 102.521C29.1357 102.67 28.8087 102.944 28.5952 103.13C28.3817 103.316 28.0244 103.652 27.8015 103.875C27.5782 104.099 27.2678 104.441 27.1114 104.636C26.9547 104.831 26.752 105.105 26.6608 105.244C26.5696 105.383 26.4294 105.634 26.3494 105.802C26.2694 105.969 26.1711 106.212 26.1312 106.342C26.0913 106.472 26.0417 106.73 26.0207 106.916C25.99 107.194 25.9923 107.308 26.0349 107.558C26.0633 107.725 26.1285 107.968 26.1802 108.098C26.2315 108.228 26.3386 108.433 26.418 108.554C26.4977 108.675 26.6669 108.875 26.7942 108.998C26.9216 109.12 27.1371 109.293 27.2732 109.381C27.409 109.469 27.6444 109.598 27.7961 109.668C27.9477 109.737 28.1933 109.833 28.3419 109.881C28.4905 109.929 28.6959 109.991 28.7979 110.019C28.9002 110.046 29.1434 110.1 29.3383 110.139C29.5336 110.177 29.868 110.23 30.0814 110.257C30.2952 110.284 30.6827 110.325 30.9427 110.348C31.2106 110.372 31.9577 110.39 32.6653 110.39C33.3527 110.391 34.2268 110.372 34.6075 110.349C34.9882 110.326 35.6573 110.278 36.0937 110.242C36.5305 110.205 37.1763 110.145 37.5292 110.107C37.8822 110.069 38.475 110 38.8465 109.954C39.2181 109.908 39.8564 109.824 40.2651 109.768C40.6738 109.712 41.5402 109.582 42.1904 109.479C42.8407 109.376 43.836 109.21 44.4024 109.11C44.9685 109.01 45.441 108.939 45.4519 108.953C45.4627 108.966 45.6475 109.22 45.862 109.517C46.0768 109.814 46.4237 110.278 46.6328 110.547C46.8422 110.816 47.2067 111.273 47.4434 111.561C47.6799 111.849 48.0592 112.297 48.2865 112.557C48.5138 112.817 48.9246 113.273 49.1995 113.57C49.4741 113.868 50.1071 114.514 50.606 115.006C51.1049 115.499 51.7639 116.128 52.0702 116.404C52.3769 116.679 52.9315 117.159 53.3031 117.47C53.6747 117.781 54.2266 118.228 54.5292 118.465C54.8322 118.701 55.3642 119.102 55.7114 119.356C56.059 119.61 56.6852 120.046 57.103 120.327C57.5212 120.607 58.1214 120.996 58.4372 121.192C58.753 121.388 59.2469 121.685 59.535 121.852C59.8232 122.019 60.2106 122.24 60.3963 122.343C60.5821 122.447 61.0307 122.687 61.3928 122.877C61.7549 123.067 62.3831 123.381 62.7885 123.573C63.1941 123.766 63.8248 124.055 64.1902 124.215C64.556 124.375 65.2123 124.646 65.6487 124.819C66.0854 124.992 66.7846 125.254 67.2024 125.403C67.6205 125.551 68.236 125.759 68.5704 125.864C68.9048 125.97 69.4975 126.147 69.8877 126.258C70.2778 126.369 70.924 126.541 71.3232 126.641C71.7227 126.74 72.3382 126.883 72.6912 126.959C73.0441 127.035 73.5383 127.136 73.789 127.183C74.0399 127.23 74.5111 127.313 74.8361 127.368C75.1614 127.422 75.7085 127.505 76.0521 127.552C76.3959 127.599 76.9431 127.668 77.2681 127.704C77.5933 127.741 78.2543 127.802 78.7374 127.839C79.2204 127.876 80.001 127.923 80.4722 127.941C80.9434 127.961 81.7263 127.976 82.2117 127.976C82.6974 127.976 83.4594 127.961 83.9053 127.942C84.3511 127.923 85.0429 127.885 85.4421 127.857C85.8417 127.828 86.5256 127.767 86.9621 127.72C87.3988 127.674 88.1207 127.584 88.5665 127.52C89.0123 127.456 89.6774 127.351 90.0443 127.285C90.4111 127.22 91.0779 127.089 91.5257 126.995C91.9739 126.9 92.7224 126.726 93.1892 126.608C93.6563 126.49 94.3309 126.309 94.6882 126.206C95.0455 126.102 95.5927 125.935 95.9042 125.834C96.2156 125.732 96.6976 125.572 96.9753 125.477C97.2533 125.382 97.7927 125.184 98.1744 125.038C98.5561 124.892 99.0918 124.68 99.365 124.569C99.6379 124.457 100.162 124.232 100.53 124.069C100.898 123.906 101.678 123.534 102.263 123.242C102.848 122.95 103.631 122.542 104.003 122.335C104.374 122.128 104.967 121.786 105.32 121.575C105.673 121.364 106.216 121.026 106.527 120.826C106.838 120.625 107.364 120.274 107.697 120.047C108.029 119.819 108.634 119.385 109.04 119.082C109.446 118.78 110.045 118.319 110.37 118.057C110.695 117.796 111.196 117.38 111.484 117.133C111.772 116.886 112.25 116.462 112.547 116.191C112.843 115.92 113.363 115.427 113.703 115.095C114.042 114.763 114.599 114.194 114.941 113.829C115.282 113.463 115.735 112.967 115.947 112.726C116.159 112.484 116.455 112.142 116.605 111.966C116.755 111.789 117.072 111.402 117.31 111.104C117.549 110.807 117.96 110.275 118.223 109.922C118.486 109.569 118.879 109.028 119.095 108.72C119.311 108.411 119.683 107.857 119.923 107.487C120.163 107.117 120.541 106.511 120.764 106.139C120.987 105.768 121.347 105.144 121.564 104.754C121.781 104.364 122.192 103.574 122.478 102.998C122.764 102.422 123.144 101.619 123.323 101.213C123.502 100.808 123.759 100.2 123.895 99.8623C124.031 99.5249 124.244 98.975 124.369 98.6406C124.494 98.3062 124.724 97.651 124.879 97.1845C125.035 96.7181 125.276 95.9429 125.414 95.4615C125.553 94.9802 125.734 94.3131 125.818 93.979C125.902 93.6446 126.039 93.0596 126.123 92.679C126.207 92.298 126.338 91.6596 126.413 91.2604C126.488 90.8608 126.602 90.1809 126.668 89.7489C126.733 89.3166 126.824 88.6477 126.87 88.2627C126.916 87.8773 126.983 87.2044 127.019 86.7681C127.056 86.3314 127.104 85.6552 127.127 85.265C127.15 84.8749 127.17 83.8778 127.171 83.0489L127.173 81.5424L128.355 80.9476C129.005 80.6203 129.986 80.115 130.534 79.8249C131.082 79.5344 131.971 79.0528 132.51 78.7545C133.048 78.4559 133.891 77.9776 134.381 77.6909C134.872 77.4045 135.617 76.9559 136.036 76.6945C136.456 76.4327 137.096 76.0213 137.458 75.7801C137.821 75.5393 138.322 75.1971 138.573 75.0201C138.824 74.8431 139.219 74.5537 139.451 74.377C139.683 74.2004 140.094 73.8731 140.363 73.6495C140.632 73.4262 141.079 73.0223 141.355 72.752C141.631 72.4818 141.979 72.1163 142.127 71.9401C142.275 71.7634 142.484 71.4902 142.59 71.3321C142.696 71.174 142.829 70.9612 142.886 70.8592C142.943 70.7568 143.044 70.5366 143.11 70.3694C143.176 70.2022 143.255 69.9286 143.287 69.7614C143.328 69.5409 143.338 69.3693 143.323 69.1366C143.312 68.9599 143.281 68.7343 143.253 68.635C143.226 68.5357 143.151 68.3415 143.085 68.2033C143.02 68.0652 142.899 67.8652 142.817 67.7591C142.735 67.6527 142.594 67.4967 142.504 67.4123C142.413 67.3279 142.248 67.1967 142.136 67.1214C142.025 67.0457 141.812 66.9228 141.663 66.8482C141.515 66.7736 141.261 66.6661 141.1 66.609C140.939 66.5523 140.62 66.4604 140.391 66.4044C140.162 66.3487 139.769 66.273 139.518 66.2358C139.268 66.199 138.857 66.1486 138.606 66.1243C138.3 66.0942 137.63 66.08 136.563 66.0807C135.641 66.0814 134.735 66.0993 134.401 66.1236C134.085 66.1466 133.546 66.1888 133.202 66.2175C132.859 66.2459 132.228 66.3067 131.8 66.3523C131.373 66.3979 130.659 66.481 130.213 66.5374C129.767 66.5935 128.939 66.7076 128.372 66.7914C127.806 66.8748 126.802 67.0336 126.143 67.144C125.483 67.2545 124.825 67.366 124.68 67.392L124.415 67.4389L124.38 67.3504C124.361 67.3018 124.273 67.0717 124.185 66.8397C124.096 66.6073 123.936 66.2046 123.83 65.9445C123.724 65.6845 123.492 65.1447 123.315 64.7454C123.138 64.3462 122.838 63.6997 122.649 63.3093C122.46 62.9188 122.148 62.303 121.955 61.9412C121.763 61.5795 121.436 60.9867 121.229 60.6247C121.021 60.2622 120.703 59.7228 120.521 59.4256C120.338 59.1283 119.942 58.5125 119.639 58.0575C119.337 57.6022 118.873 56.9334 118.609 56.5713C118.346 56.2089 117.924 55.6489 117.674 55.3267C117.423 55.0041 117.019 54.5025 116.776 54.2121C116.534 53.9212 116.161 53.4859 115.948 53.2444C115.735 53.0029 115.291 52.5165 114.961 52.1635C114.632 51.8105 114.09 51.2552 113.759 50.9296C113.427 50.6039 112.935 50.1345 112.666 49.8859C112.397 49.6373 111.902 49.1985 111.568 48.9111C111.234 48.6233 110.694 48.1741 110.369 47.913C110.044 47.6515 109.445 47.1904 109.039 46.8877C108.633 46.5851 108.029 46.1514 107.696 45.9234C107.363 45.6957 106.837 45.3451 106.526 45.1445C106.215 44.9439 105.687 44.6152 105.353 44.4142C105.019 44.2133 104.426 43.8711 104.036 43.6536C103.646 43.4361 102.847 43.0196 102.262 42.7278C101.677 42.4363 100.902 42.0661 100.538 41.9053C100.175 41.7441 99.5826 41.4915 99.2212 41.3436C98.8598 41.1953 98.2369 40.9528 97.8377 40.8041C97.4385 40.6555 96.8075 40.4326 96.436 40.309C96.0644 40.185 95.4622 39.9945 95.0974 39.8854C94.7329 39.7763 94.1175 39.6023 93.7294 39.4993C93.3416 39.3963 92.6979 39.2369 92.2983 39.1453C91.899 39.0534 91.2607 38.9173 90.8797 38.8424C90.499 38.7678 89.9137 38.6606 89.5793 38.6049C89.2449 38.5492 88.6977 38.4654 88.3633 38.4188C88.0289 38.3722 87.3983 38.2958 86.9615 38.2496C86.5251 38.203 85.8411 38.1418 85.4415 38.1135C85.0423 38.0851 84.3505 38.0465 83.9047 38.0279C83.4588 38.0093 82.6232 37.9976 82.0473 38.0009ZM82.554 39.2301C83.4086 39.2361 84.3509 39.2571 84.6482 39.2764C84.9454 39.2956 85.4774 39.3352 85.8304 39.3642C86.1834 39.3932 86.7913 39.4537 87.1815 39.4983C87.5716 39.5425 88.21 39.626 88.6001 39.6837C88.9902 39.7411 89.637 39.8482 90.0373 39.9212C90.4376 39.9945 91.0759 40.1215 91.4559 40.2039C91.8359 40.286 92.4584 40.4316 92.8391 40.5268C93.2201 40.6224 93.8203 40.7829 94.1733 40.8832C94.5263 40.9835 95.0772 41.149 95.3973 41.2507C95.7175 41.3523 96.2265 41.5216 96.5288 41.6266C96.8308 41.7317 97.379 41.9309 97.7471 42.0694C98.1149 42.2082 98.7 42.4406 99.0475 42.5862C99.3947 42.7321 99.9372 42.9682 100.253 43.1111C100.569 43.254 101.177 43.5434 101.604 43.7542C102.031 43.965 102.624 44.269 102.921 44.4301C103.219 44.5912 103.69 44.853 103.969 45.0121C104.247 45.1712 104.772 45.484 105.134 45.7069C105.496 45.9302 106.066 46.2946 106.4 46.5172C106.735 46.7398 107.213 47.0667 107.464 47.2437C107.715 47.4211 108.164 47.7484 108.461 47.9713C108.758 48.1942 109.258 48.5816 109.571 48.833C109.885 49.0839 110.371 49.4862 110.652 49.727C110.933 49.9678 111.384 50.3634 111.653 50.6063C111.922 50.8491 112.57 51.4737 113.091 51.9942C113.613 52.5147 114.267 53.1913 114.544 53.4979C114.822 53.8042 115.224 54.2602 115.439 54.5112C115.654 54.7618 116.05 55.2408 116.318 55.5752C116.587 55.9095 116.967 56.3959 117.162 56.6561C117.357 56.9161 117.685 57.3644 117.889 57.6525C118.094 57.9403 118.413 58.404 118.599 58.6827C118.785 58.9613 119.112 59.4704 119.327 59.8142C119.541 60.158 119.845 60.6593 120.002 60.9288C120.16 61.198 120.433 61.6844 120.611 62.0097C120.788 62.3346 121.123 62.9808 121.355 63.4452C121.587 63.9096 121.914 64.5936 122.083 64.9652C122.251 65.3367 122.52 65.9596 122.68 66.3494C122.841 66.7395 123.106 67.4235 123.27 67.8694C123.434 68.3156 123.67 68.9921 123.795 69.3731C123.919 69.7537 124.12 70.4074 124.24 70.8255C124.36 71.2433 124.541 71.9124 124.641 72.3117C124.742 72.7109 124.891 73.3493 124.974 73.7303C125.057 74.1109 125.186 74.7581 125.261 75.1682C125.336 75.5779 125.45 76.2848 125.516 76.7388C125.581 77.1924 125.672 77.921 125.718 78.3577C125.764 78.7941 125.806 79.2274 125.812 79.3203L125.822 79.4892L125.13 79.8341C124.749 80.0239 123.951 80.4096 123.356 80.6917C122.762 80.9737 121.782 81.4324 121.178 81.7108C120.574 81.9894 119.556 82.4522 118.915 82.7393C118.274 83.0264 117.104 83.5432 116.314 83.8873C115.525 84.2315 114.248 84.7786 113.477 85.1036C112.706 85.4282 111.558 85.9071 110.926 86.1676C110.295 86.428 108.972 86.9644 107.988 87.3593C107.003 87.7541 105.552 88.3284 104.762 88.6354C103.973 88.9424 102.779 89.4018 102.111 89.6565C101.442 89.9112 100.264 90.3546 99.4929 90.6421C98.7221 90.9292 97.24 91.4737 96.1996 91.8513C95.1593 92.2293 93.6545 92.769 92.8557 93.0507C92.0569 93.3327 90.7879 93.7762 90.0353 94.0363C89.2831 94.296 88.0823 94.7075 87.3669 94.95C86.6519 95.1925 85.5649 95.5566 84.9519 95.7589C84.3389 95.9613 83.1914 96.3379 82.4017 96.5956C81.6123 96.8536 80.2214 97.3001 79.3111 97.5883C78.4008 97.8764 77.0406 98.3023 76.2881 98.5344C75.5359 98.7665 74.2361 99.1617 73.4002 99.4123C72.5643 99.6632 71.3864 100.013 70.7825 100.19C70.1789 100.367 68.8565 100.747 67.8439 101.035C66.8316 101.323 65.3343 101.741 64.5169 101.964C63.6995 102.187 62.3619 102.545 61.5445 102.761C60.7271 102.976 59.1537 103.378 58.0486 103.654C56.9434 103.93 55.3245 104.325 54.4514 104.53C53.5783 104.735 52.2103 105.047 51.4115 105.224C50.6127 105.4 49.5487 105.63 49.0471 105.735C48.5455 105.839 47.6413 106.021 47.0374 106.14C46.4338 106.259 45.7877 106.385 45.6019 106.419L45.2642 106.483L45.1933 106.379C45.1541 106.321 44.943 105.978 44.7244 105.616C44.5056 105.254 44.1526 104.646 43.9405 104.265C43.728 103.884 43.3443 103.154 43.0879 102.643C42.8312 102.132 42.4837 101.411 42.3158 101.039C42.1476 100.667 41.8814 100.051 41.7244 99.67C41.5677 99.2883 41.3174 98.65 41.1684 98.2514C41.0194 97.8525 40.7668 97.1273 40.6064 96.6399C40.4463 96.1522 40.2335 95.4682 40.1335 95.1196C40.0335 94.7711 39.867 94.1516 39.7636 93.7428C39.6603 93.3345 39.5069 92.6883 39.4232 92.3076C39.3394 91.9266 39.21 91.2808 39.1357 90.8721C39.0611 90.4634 38.9624 89.8781 38.9165 89.5717C38.8702 89.265 38.8017 88.7712 38.7642 88.4739C38.7267 88.1767 38.6659 87.6295 38.6291 87.2579C38.5926 86.8864 38.5462 86.3544 38.5264 86.0757C38.5068 85.797 38.4757 85.2573 38.4582 84.8766C38.4403 84.4956 38.4254 83.6522 38.4251 83.002C38.4251 82.3518 38.44 81.4928 38.4585 81.0936C38.4771 80.694 38.5156 80.0556 38.544 79.675C38.5727 79.294 38.6261 78.7013 38.6625 78.3577C38.6993 78.0139 38.7838 77.3451 38.85 76.8715C38.9162 76.3976 39.0375 75.6406 39.1195 75.1887C39.2012 74.7368 39.3361 74.0589 39.4191 73.6819C39.5019 73.305 39.6475 72.6865 39.7427 72.3079C39.8376 71.9293 39.9829 71.3791 40.0656 71.0852C40.1484 70.7914 40.2984 70.2897 40.399 69.9706C40.4997 69.6514 40.6723 69.1238 40.7827 68.7989C40.8932 68.4736 41.0593 68.0028 41.1522 67.7518C41.2451 67.5009 41.4498 66.9766 41.6076 66.5865C41.765 66.1964 42.0284 65.5739 42.1922 65.2033C42.3564 64.8328 42.6979 64.1109 42.9516 63.5989C43.2052 63.0872 43.5237 62.4633 43.6595 62.2123C43.7953 61.9613 44.0591 61.4902 44.2452 61.1652C44.4317 60.8399 44.7583 60.2931 44.9708 59.9499C45.1832 59.6064 45.5828 58.989 45.8587 58.5776C46.1344 58.1659 46.5522 57.5653 46.7872 57.2427C47.022 56.9201 47.4158 56.3976 47.6628 56.0818C47.9093 55.766 48.3218 55.255 48.5791 54.9462C48.8365 54.6375 49.2692 54.1359 49.5401 53.8316C49.8113 53.5273 50.3007 53.0004 50.6284 52.6609C50.9557 52.3211 51.5015 51.7756 51.8413 51.448C52.1807 51.1207 52.7249 50.6157 53.0499 50.3256C53.3751 50.0358 53.8233 49.646 54.0463 49.4596C54.2692 49.2731 54.6418 48.9681 54.8738 48.7816C55.1062 48.5955 55.5697 48.2378 55.904 47.9869C56.2384 47.7359 56.7174 47.3863 56.968 47.2104C57.219 47.034 57.6294 46.7527 57.88 46.5848C58.131 46.4173 58.6021 46.1126 58.9271 45.9079C59.2524 45.7036 59.7462 45.4026 60.0249 45.2391C60.3036 45.0757 60.8052 44.7912 61.1395 44.6071C61.4739 44.4234 62.1349 44.0792 62.6088 43.8424C63.0827 43.6057 63.5995 43.3533 63.7572 43.2814C63.9153 43.2098 64.2115 43.076 64.4159 42.9845C64.6202 42.893 65.061 42.7045 65.3954 42.5653C65.7298 42.4262 66.201 42.2363 66.4425 42.1431C66.684 42.0499 67.2443 41.8452 67.6875 41.6885C68.1307 41.5314 68.8123 41.3044 69.2024 41.1842C69.5922 41.0636 70.2971 40.8599 70.7687 40.7316C71.2402 40.6029 71.9644 40.4218 72.3781 40.3286C72.7919 40.2354 73.3127 40.1212 73.5356 40.0749C73.7585 40.029 74.2983 39.9297 74.7347 39.8547C75.1714 39.7794 75.7946 39.6808 76.1195 39.6352C76.4448 39.5899 76.9919 39.5213 77.3355 39.4832C77.6793 39.445 78.2265 39.3913 78.5515 39.3639C78.8768 39.3362 79.4392 39.2977 79.8012 39.2781C80.1636 39.2582 80.5815 39.2369 80.7301 39.2305C80.8787 39.2245 81.6994 39.2245 82.554 39.2301ZM136.834 68.5121C137.596 68.5181 138.371 68.5395 138.557 68.5604C138.742 68.5813 139.084 68.63 139.315 68.6682C139.546 68.7067 139.865 68.7752 140.024 68.8212C140.183 68.8671 140.415 68.9512 140.539 69.008C140.663 69.0651 140.799 69.1475 140.84 69.1917L140.915 69.2714L140.873 69.4156C140.85 69.4946 140.792 69.6277 140.745 69.7115C140.697 69.7949 140.575 69.9753 140.474 70.1118C140.372 70.2486 140.176 70.484 140.036 70.6353C139.897 70.7867 139.636 71.0461 139.457 71.2119C139.278 71.3774 138.964 71.6524 138.759 71.8226C138.555 71.9928 138.145 72.3147 137.847 72.538C137.55 72.7612 137.041 73.1274 136.716 73.352C136.391 73.5766 135.768 73.9873 135.331 74.2646C134.895 74.542 134.233 74.951 133.862 75.1739C133.49 75.3965 132.92 75.7309 132.595 75.917C132.27 76.1032 131.74 76.4028 131.417 76.5831C131.094 76.7632 130.395 77.1431 129.863 77.4272C129.332 77.7112 128.474 78.1605 127.958 78.4253C127.441 78.6898 127.013 78.9009 127.008 78.8941C127.003 78.8871 126.964 78.5628 126.923 78.1727C126.881 77.7825 126.788 77.0502 126.715 76.5449C126.642 76.04 126.521 75.2953 126.446 74.8899C126.371 74.4849 126.256 73.9022 126.192 73.5958C126.126 73.2895 125.967 72.6129 125.838 72.0928C125.709 71.5726 125.514 70.843 125.405 70.4715C125.272 70.0131 125.22 69.7888 125.245 69.774C125.266 69.7622 125.792 69.6676 126.414 69.5639C127.036 69.4602 127.842 69.3305 128.204 69.2751C128.567 69.2197 129.136 69.1363 129.471 69.0893C129.805 69.0427 130.383 68.9667 130.754 68.9204C131.126 68.8745 131.802 68.7985 132.257 68.7515C132.713 68.7046 133.389 68.6421 133.76 68.6127C134.132 68.5833 134.664 68.5462 134.943 68.5306C135.221 68.5147 136.072 68.5064 136.834 68.5121ZM125.935 82.1751C125.98 82.1751 125.983 82.3224 125.963 83.4333C125.951 84.1254 125.926 84.9499 125.908 85.2657C125.89 85.5815 125.858 86.0602 125.839 86.3297C125.818 86.5989 125.764 87.1765 125.719 87.6132C125.673 88.0496 125.582 88.7785 125.517 89.2321C125.451 89.6861 125.338 90.3859 125.265 90.7875C125.191 91.1891 125.062 91.8353 124.979 92.2234C124.895 92.6118 124.743 93.257 124.643 93.6576C124.542 94.0579 124.361 94.7273 124.241 95.1455C124.12 95.5634 123.935 96.1713 123.829 96.4966C123.724 96.8216 123.51 97.44 123.355 97.8703C123.199 98.3007 122.944 98.9694 122.788 99.3565C122.632 99.7436 122.37 100.364 122.205 100.736C122.041 101.107 121.691 101.847 121.427 102.38C121.163 102.912 120.8 103.619 120.619 103.95C120.437 104.282 120.161 104.773 120.004 105.042C119.846 105.311 119.542 105.813 119.328 106.157C119.113 106.5 118.786 107.01 118.6 107.288C118.414 107.567 118.073 108.061 117.841 108.386C117.61 108.711 117.211 109.251 116.955 109.585C116.699 109.92 116.327 110.391 116.13 110.632C115.932 110.874 115.608 111.261 115.409 111.494C115.211 111.726 114.821 112.167 114.543 112.473C114.264 112.78 113.74 113.333 113.377 113.702C113.014 114.071 112.421 114.649 112.058 114.985C111.696 115.322 111.179 115.789 110.91 116.022C110.641 116.256 110.208 116.622 109.948 116.835C109.688 117.048 109.247 117.398 108.969 117.614C108.69 117.829 108.2 118.196 107.879 118.429C107.559 118.662 107.004 119.049 106.646 119.29C106.289 119.529 105.73 119.892 105.405 120.096C105.08 120.299 104.579 120.603 104.29 120.771C104.003 120.939 103.539 121.202 103.26 121.356C102.982 121.51 102.404 121.814 101.977 122.031C101.549 122.248 100.926 122.551 100.592 122.705C100.258 122.86 99.6725 123.119 99.2918 123.281C98.9108 123.444 98.2572 123.707 97.839 123.866C97.4212 124.024 96.8281 124.241 96.5217 124.346C96.2154 124.451 95.729 124.613 95.4408 124.705C95.1531 124.797 94.6285 124.956 94.2755 125.058C93.9226 125.159 93.2768 125.332 92.84 125.442C92.4036 125.551 91.7561 125.703 91.4014 125.779C91.0468 125.855 90.4236 125.979 90.0165 126.053C89.6095 126.128 88.9116 126.241 88.4658 126.305C88.02 126.369 87.3815 126.451 87.0472 126.488C86.7128 126.526 86.1582 126.579 85.8143 126.608C85.4708 126.636 84.9388 126.675 84.6321 126.694C84.3258 126.713 83.5201 126.738 82.8419 126.749C82.1002 126.762 81.2186 126.754 80.6295 126.731C80.0908 126.709 79.346 126.668 78.9744 126.64C78.6029 126.612 78.0787 126.567 77.8091 126.539C77.5399 126.512 77.0762 126.459 76.7789 126.422C76.4817 126.384 76.0335 126.324 75.7825 126.286C75.5319 126.249 75.0607 126.173 74.7354 126.117C74.4105 126.061 73.9163 125.969 73.6376 125.913C73.359 125.857 72.9259 125.765 72.675 125.71C72.4243 125.654 72.0596 125.57 71.8643 125.523C71.6694 125.477 71.205 125.356 70.8324 125.257C70.4599 125.157 69.8975 124.997 69.5827 124.902C69.2679 124.807 68.843 124.675 68.6387 124.609C68.4343 124.543 67.9506 124.377 67.5643 124.24C67.1775 124.103 66.5391 123.864 66.1457 123.708C65.7518 123.552 65.2094 123.33 64.9402 123.215C64.671 123.1 64.1694 122.876 63.8256 122.717C63.482 122.558 62.9423 122.299 62.6265 122.142C62.3107 121.984 61.7617 121.698 61.4065 121.506C61.0515 121.313 60.5194 121.017 60.2243 120.846C59.9294 120.676 59.4069 120.361 59.0631 120.147C58.7196 119.934 58.1153 119.541 57.7205 119.275C57.3259 119.009 56.8318 118.666 56.6227 118.515C56.4136 118.363 56.0299 118.079 55.7698 117.883C55.5097 117.687 55.1071 117.375 54.8747 117.189C54.6427 117.002 54.2701 116.698 54.0472 116.511C53.8242 116.325 53.376 115.935 53.0507 115.645C52.7258 115.355 52.1817 114.85 51.8421 114.523C51.5024 114.195 50.9565 113.65 50.6293 113.31C50.302 112.971 49.8368 112.472 49.5961 112.203C49.3552 111.933 48.9043 111.409 48.5939 111.037C48.2838 110.666 47.8322 110.107 47.5903 109.796C47.3485 109.485 47.0628 109.108 46.955 108.959C46.8476 108.81 46.7652 108.684 46.7723 108.679C46.7793 108.675 47.1577 108.598 47.6127 108.509C48.068 108.42 48.9114 108.249 49.4873 108.129C50.0632 108.009 51.188 107.765 51.9868 107.588C52.7856 107.411 54.0853 107.115 54.8746 106.929C55.6643 106.744 57.0702 106.404 57.9991 106.175C58.9279 105.945 60.3111 105.596 61.0728 105.398C61.8344 105.2 63.0807 104.871 63.8424 104.666C64.6041 104.462 65.7666 104.145 66.4263 103.961C67.086 103.778 68.0357 103.512 68.5374 103.37C69.039 103.228 70.0955 102.924 70.8849 102.694C71.6746 102.464 73.0122 102.07 73.8573 101.816C74.7028 101.563 75.8653 101.211 76.4412 101.034C77.0171 100.857 77.9977 100.553 78.6199 100.359C79.2424 100.164 80.4856 99.7701 81.3834 99.4823C82.2809 99.1949 83.7704 98.7098 84.6936 98.4048C85.6164 98.0995 86.9796 97.6459 87.7227 97.3962C88.4658 97.147 89.7656 96.7045 90.6107 96.4126C91.4561 96.1211 92.8923 95.6192 93.8026 95.2969C94.7128 94.975 96.2177 94.4352 97.1465 94.0975C98.0753 93.7601 99.5193 93.2284 100.355 92.9166C101.191 92.6045 102.324 92.179 102.872 91.9705C103.42 91.7621 104.37 91.397 104.983 91.1592C105.596 90.9214 106.675 90.4988 107.381 90.2208C108.087 89.9425 109.265 89.4713 109.999 89.1737C110.733 88.8761 111.69 88.4857 112.127 88.3057C112.563 88.1257 113.247 87.8412 113.647 87.6737C114.046 87.5062 114.89 87.1484 115.521 86.8789C116.153 86.609 117.156 86.1763 117.751 85.9166C118.345 85.6572 119.34 85.2168 119.962 84.9381C120.583 84.6591 121.564 84.2139 122.14 83.9481C122.717 83.6823 123.622 83.2601 124.151 83.0095C124.681 82.7589 125.287 82.4684 125.499 82.3643C125.711 82.26 125.907 82.1751 125.935 82.1751ZM40.047 98.7521C40.0575 98.7646 40.147 98.9879 40.2463 99.248C40.3453 99.5081 40.5212 99.9488 40.6371 100.228C40.7529 100.506 40.935 100.931 41.0417 101.173C41.1485 101.414 41.364 101.885 41.5204 102.22C41.6771 102.554 41.9659 103.14 42.1621 103.521C42.3587 103.902 42.6715 104.487 42.858 104.821C43.0441 105.156 43.3683 105.717 43.5781 106.07C43.7882 106.422 43.9571 106.713 43.953 106.717C43.949 106.721 43.3916 106.816 42.7134 106.928C42.0352 107.04 41.1691 107.178 40.7881 107.234C40.4074 107.29 39.7613 107.381 39.3526 107.437C38.9439 107.492 38.1991 107.583 37.6975 107.64C37.1959 107.696 36.4285 107.772 35.9918 107.808C35.5554 107.845 34.9322 107.89 34.6069 107.909C34.282 107.928 33.6588 107.954 33.222 107.966C32.7711 107.978 32.1074 107.971 31.6852 107.95C31.2765 107.929 30.7523 107.889 30.5199 107.861C30.2879 107.832 29.9393 107.778 29.7457 107.739C29.5522 107.7 29.2819 107.632 29.1448 107.588C29.008 107.543 28.8243 107.47 28.7368 107.425C28.6493 107.38 28.5422 107.31 28.499 107.269C28.4399 107.213 28.4254 107.173 28.4412 107.106C28.4527 107.057 28.5064 106.926 28.5608 106.814C28.6152 106.703 28.7573 106.482 28.8766 106.324C28.9958 106.166 29.2272 105.895 29.3907 105.721C29.5541 105.548 29.8791 105.238 30.1125 105.033C30.3459 104.828 30.7343 104.505 30.9758 104.315C31.2173 104.124 31.6203 103.819 31.8709 103.636C32.1219 103.453 32.669 103.074 33.0869 102.795C33.5051 102.516 34.1431 102.103 34.5055 101.878C34.8679 101.653 35.4378 101.306 35.7721 101.106C36.1065 100.907 36.807 100.503 37.3289 100.209C37.8504 99.9151 38.6712 99.4618 39.1529 99.2017C39.6342 98.9419 40.0365 98.7393 40.047 98.7521ZM125.911 113.393C125.642 113.395 125.283 113.41 125.113 113.425C124.944 113.44 124.655 113.477 124.471 113.506C124.288 113.536 123.965 113.598 123.753 113.646C123.542 113.693 123.187 113.792 122.965 113.865C122.743 113.938 122.415 114.06 122.235 114.134C122.055 114.209 121.706 114.375 121.458 114.504C121.21 114.633 120.815 114.866 120.579 115.023C120.344 115.18 119.961 115.467 119.729 115.661C119.497 115.855 119.158 116.169 118.976 116.359C118.793 116.55 118.521 116.86 118.37 117.048C118.22 117.237 117.987 117.558 117.853 117.763C117.719 117.967 117.531 118.275 117.436 118.448C117.341 118.62 117.197 118.909 117.116 119.09C117.035 119.27 116.913 119.567 116.845 119.75C116.776 119.932 116.668 120.267 116.605 120.493C116.541 120.719 116.451 121.109 116.405 121.36C116.36 121.61 116.304 122.021 116.282 122.272C116.257 122.556 116.249 122.989 116.261 123.42C116.272 123.801 116.306 124.272 116.336 124.467C116.366 124.662 116.426 124.989 116.471 125.193C116.515 125.398 116.59 125.7 116.638 125.865C116.687 126.03 116.781 126.312 116.847 126.49C116.914 126.669 117.035 126.962 117.116 127.143C117.196 127.323 117.341 127.612 117.436 127.784C117.531 127.957 117.719 128.265 117.853 128.47C117.987 128.674 118.224 129.001 118.378 129.196C118.533 129.391 118.859 129.749 119.102 129.991C119.345 130.234 119.696 130.553 119.881 130.7C120.067 130.848 120.404 131.092 120.63 131.242C120.856 131.392 121.253 131.624 121.512 131.757C121.772 131.89 122.194 132.081 122.453 132.181C122.711 132.281 123.089 132.41 123.293 132.468C123.498 132.525 123.809 132.602 123.986 132.638C124.162 132.674 124.482 132.728 124.695 132.758C124.909 132.789 125.334 132.822 125.641 132.833C125.972 132.845 126.404 132.837 126.705 132.813C126.983 132.79 127.386 132.742 127.6 132.706C127.814 132.669 128.163 132.595 128.377 132.541C128.591 132.487 128.943 132.381 129.16 132.306C129.378 132.231 129.712 132.1 129.903 132.015C130.095 131.931 130.379 131.792 130.535 131.708C130.691 131.624 130.957 131.469 131.126 131.364C131.295 131.26 131.608 131.043 131.822 130.881C132.036 130.72 132.351 130.46 132.522 130.303C132.694 130.146 132.973 129.867 133.143 129.683C133.312 129.499 133.576 129.181 133.73 128.976C133.884 128.772 134.105 128.453 134.222 128.267C134.339 128.082 134.531 127.74 134.649 127.507C134.767 127.275 134.939 126.892 135.03 126.657C135.122 126.422 135.251 126.042 135.316 125.813C135.382 125.584 135.464 125.251 135.5 125.075C135.536 124.898 135.592 124.557 135.625 124.315C135.666 124.005 135.684 123.652 135.684 123.116C135.683 122.605 135.665 122.216 135.628 121.93C135.597 121.696 135.541 121.354 135.503 121.17C135.466 120.986 135.382 120.649 135.316 120.42C135.251 120.19 135.122 119.81 135.03 119.575C134.938 119.34 134.767 118.957 134.649 118.725C134.531 118.492 134.339 118.15 134.222 117.965C134.105 117.779 133.884 117.46 133.73 117.256C133.576 117.051 133.312 116.734 133.143 116.549C132.973 116.365 132.694 116.086 132.522 115.929C132.351 115.773 132.036 115.513 131.822 115.351C131.608 115.19 131.295 114.972 131.126 114.868C130.957 114.763 130.691 114.609 130.535 114.525C130.379 114.44 130.095 114.302 129.903 114.217C129.712 114.132 129.377 114.001 129.16 113.926C128.943 113.851 128.59 113.745 128.377 113.691C128.163 113.637 127.806 113.562 127.583 113.525C127.36 113.488 127.003 113.442 126.789 113.423C126.576 113.404 126.181 113.391 125.911 113.393ZM126.131 114.622C126.502 114.629 126.958 114.657 127.144 114.685C127.33 114.713 127.634 114.768 127.819 114.807C128.005 114.847 128.392 114.957 128.679 115.052C128.993 115.156 129.41 115.328 129.726 115.485C130.015 115.629 130.434 115.868 130.657 116.017C130.88 116.166 131.19 116.39 131.345 116.516C131.501 116.642 131.784 116.9 131.975 117.089C132.165 117.278 132.447 117.591 132.601 117.784C132.755 117.976 132.977 118.28 133.094 118.459C133.211 118.637 133.404 118.972 133.524 119.202C133.643 119.432 133.81 119.795 133.895 120.009C133.979 120.222 134.103 120.595 134.169 120.836C134.235 121.078 134.319 121.446 134.355 121.655C134.391 121.863 134.439 122.278 134.461 122.575C134.491 122.988 134.491 123.244 134.461 123.655C134.439 123.95 134.398 124.335 134.368 124.507C134.339 124.68 134.264 125.022 134.202 125.266C134.14 125.51 134.034 125.86 133.966 126.043C133.899 126.226 133.732 126.604 133.595 126.882C133.458 127.161 133.241 127.548 133.114 127.744C132.986 127.939 132.755 128.256 132.601 128.449C132.447 128.642 132.165 128.955 131.975 129.144C131.784 129.333 131.501 129.591 131.345 129.716C131.19 129.842 130.88 130.067 130.657 130.216C130.434 130.365 130.008 130.606 129.711 130.752C129.414 130.897 128.97 131.085 128.725 131.168C128.48 131.251 128.105 131.359 127.891 131.407C127.677 131.455 127.346 131.516 127.154 131.544C126.963 131.572 126.563 131.604 126.266 131.616C125.938 131.629 125.549 131.621 125.277 131.598C125.03 131.576 124.666 131.528 124.467 131.491C124.267 131.455 123.937 131.38 123.733 131.325C123.528 131.271 123.194 131.164 122.99 131.088C122.787 131.013 122.419 130.851 122.174 130.73C121.928 130.609 121.53 130.377 121.288 130.216C121.047 130.054 120.697 129.797 120.512 129.643C120.327 129.489 120.029 129.21 119.85 129.024C119.671 128.837 119.431 128.568 119.317 128.425C119.204 128.282 119.007 128.009 118.88 127.817C118.753 127.624 118.578 127.337 118.492 127.178C118.405 127.019 118.269 126.741 118.19 126.561C118.11 126.381 117.991 126.076 117.924 125.885C117.857 125.693 117.765 125.389 117.72 125.21C117.675 125.03 117.603 124.687 117.562 124.447C117.497 124.07 117.486 123.89 117.486 123.116C117.486 122.343 117.497 122.162 117.562 121.785C117.603 121.546 117.674 121.204 117.72 121.025C117.765 120.847 117.846 120.572 117.901 120.414C117.955 120.256 118.048 120.005 118.107 119.857C118.166 119.708 118.306 119.412 118.418 119.198C118.529 118.984 118.731 118.642 118.866 118.438C119 118.234 119.202 117.952 119.313 117.813C119.424 117.674 119.643 117.424 119.8 117.258C119.957 117.093 120.252 116.814 120.456 116.639C120.66 116.464 121.033 116.184 121.284 116.018C121.535 115.851 121.939 115.617 122.182 115.497C122.426 115.378 122.788 115.219 122.987 115.144C123.185 115.069 123.548 114.956 123.794 114.892C124.038 114.828 124.384 114.752 124.56 114.722C124.737 114.693 125.01 114.655 125.168 114.639C125.326 114.622 125.759 114.615 126.131 114.622ZM41.3175 117.052C41.0152 117.043 40.7474 117.054 40.5745 117.082C40.4258 117.107 40.1874 117.159 40.0445 117.199C39.902 117.238 39.648 117.33 39.4804 117.402C39.3126 117.474 39.0217 117.636 38.8336 117.761C38.6414 117.889 38.3614 118.119 38.1942 118.286C38.0301 118.45 37.797 118.733 37.6747 118.917C37.5528 119.1 37.3998 119.366 37.3349 119.509C37.2701 119.651 37.1782 119.895 37.1313 120.049C37.084 120.203 37.0225 120.482 36.9948 120.667C36.9668 120.853 36.9438 121.133 36.9438 121.291C36.9438 121.449 36.9661 121.723 36.9931 121.899C37.0201 122.076 37.0735 122.33 37.111 122.464C37.1488 122.598 37.2373 122.842 37.3079 123.005C37.3782 123.169 37.5203 123.431 37.6234 123.589C37.7264 123.747 37.8906 123.969 37.9882 124.084C38.0855 124.198 38.2837 124.392 38.4283 124.514C38.5732 124.636 38.8218 124.818 38.9812 124.918C39.141 125.018 39.4068 125.154 39.5723 125.221C39.7378 125.287 39.9932 125.371 40.1394 125.408C40.2857 125.445 40.5245 125.491 40.6697 125.511C40.815 125.531 41.0582 125.547 41.2102 125.547C41.3622 125.547 41.6381 125.524 41.8235 125.496C42.009 125.468 42.2873 125.407 42.4417 125.359C42.596 125.312 42.8392 125.221 42.9818 125.156C43.1243 125.091 43.3908 124.938 43.5739 124.816C43.7576 124.694 44.0403 124.461 44.2045 124.296C44.3721 124.129 44.6017 123.849 44.7298 123.657C44.8551 123.469 45.0162 123.179 45.0881 123.012C45.1601 122.845 45.2499 122.598 45.2878 122.464C45.3253 122.33 45.3787 122.076 45.4056 121.899C45.4326 121.723 45.4549 121.449 45.4549 121.291C45.4549 121.133 45.4326 120.86 45.4056 120.683C45.3786 120.507 45.3252 120.253 45.2878 120.118C45.25 119.984 45.1601 119.738 45.0881 119.571C45.0162 119.404 44.8551 119.114 44.7298 118.925C44.6017 118.733 44.3721 118.453 44.2045 118.286C44.04 118.121 43.7576 117.889 43.5729 117.766C43.3892 117.644 43.1335 117.496 43.0044 117.437C42.8754 117.379 42.6866 117.301 42.5843 117.265C42.4822 117.23 42.2617 117.17 42.0945 117.133C41.9047 117.091 41.6131 117.061 41.3175 117.052ZM41.2838 118.265C41.5459 118.274 41.7843 118.304 41.9593 118.349C42.1079 118.388 42.3683 118.488 42.5375 118.571C42.7071 118.655 42.9506 118.805 43.079 118.906C43.2074 119.006 43.3813 119.17 43.4657 119.269C43.5501 119.369 43.6681 119.523 43.7282 119.611C43.7883 119.699 43.8896 119.882 43.9535 120.017C44.017 120.151 44.1024 120.383 44.1426 120.531C44.2024 120.751 44.2162 120.894 44.2162 121.291C44.2162 121.689 44.2024 121.832 44.1426 122.051C44.1024 122.2 44.0177 122.431 43.9542 122.564C43.891 122.698 43.7748 122.902 43.6961 123.018C43.6174 123.134 43.4593 123.322 43.3448 123.437C43.23 123.551 43.0415 123.709 42.9257 123.788C42.8101 123.867 42.6061 123.983 42.4724 124.046C42.3389 124.11 42.1079 124.193 41.9593 124.231C41.8107 124.269 41.5371 124.309 41.3513 124.32C41.1135 124.333 40.9203 124.323 40.6991 124.284C40.5262 124.254 40.2667 124.184 40.1222 124.128C39.9779 124.072 39.7655 123.97 39.6506 123.9C39.5358 123.831 39.348 123.698 39.2335 123.605C39.119 123.512 38.9373 123.326 38.8299 123.191C38.7221 123.055 38.5654 122.804 38.481 122.633C38.3966 122.462 38.2952 122.2 38.2553 122.051C38.1972 121.835 38.1827 121.683 38.182 121.291C38.181 120.892 38.1945 120.752 38.2543 120.531C38.2945 120.383 38.3965 120.121 38.481 119.95C38.5654 119.778 38.7221 119.527 38.8299 119.392C38.9376 119.257 39.1308 119.06 39.2595 118.955C39.3882 118.85 39.6078 118.703 39.7476 118.627C39.8874 118.552 40.0698 118.465 40.1529 118.435C40.236 118.405 40.4336 118.351 40.5914 118.316C40.8136 118.266 40.9703 118.255 41.2838 118.265Z" fill="white"/>
</svg>
