<svg width="512" height="512" viewBox="0 0 512 512" fill="none" xmlns="http://www.w3.org/2000/svg">
<rect width="512" height="512" fill="white"/>
<path d="M245.292 49.0764C242.936 49.0938 240.543 49.1235 239.972 49.1457C239.403 49.1676 237.63 49.2579 236.034 49.3447C234.438 49.4315 232.044 49.5995 230.714 49.719C229.384 49.8399 227.146 50.0712 225.739 50.2364C224.334 50.4014 222.063 50.7008 220.695 50.9027C219.327 51.1047 216.776 51.529 215.025 51.8459C213.276 52.1645 210.883 52.6301 209.705 52.8821C208.53 53.1326 206.605 53.5705 205.426 53.8535C204.249 54.1367 202.07 54.6952 200.587 55.0961C199.103 55.4972 196.7 56.1882 195.246 56.6319C193.793 57.0741 191.307 57.8775 189.722 58.4154C188.137 58.952 185.38 59.9557 183.594 60.6455C181.808 61.3354 179.133 62.4172 177.652 63.0496C176.17 63.6834 174.024 64.6296 172.884 65.1529C171.744 65.6761 169.692 66.6564 168.325 67.3314C166.957 68.0065 164.501 69.2815 162.866 70.1672C161.233 71.0516 158.808 72.4104 157.477 73.1858C156.148 73.9611 153.875 75.3407 152.426 76.2501C150.978 77.1595 148.74 78.6158 147.452 79.4854C146.164 80.3535 143.96 81.8982 142.553 82.9152C141.148 83.9322 138.973 85.5581 137.721 86.528C136.469 87.4979 134.373 89.1782 133.064 90.2614C131.755 91.3447 129.391 93.3832 127.81 94.791C126.228 96.2001 123.909 98.3373 122.655 99.5415C121.401 100.746 118.705 103.49 116.664 105.642C114.625 107.792 112.035 110.614 110.91 111.911C109.785 113.208 108.076 115.23 107.113 116.406C106.148 117.581 104.471 119.704 103.386 121.123C102.301 122.541 100.658 124.755 99.7339 126.04C98.8109 127.326 97.1609 129.714 96.0678 131.347C94.9762 132.98 93.1811 135.774 92.0799 137.558C90.9786 139.342 89.239 142.293 88.2135 144.117C87.1882 145.941 85.7083 148.66 84.9235 150.161C84.14 151.661 82.6503 154.678 81.6125 156.867C80.5762 159.056 79.2745 161.908 78.7189 163.205C78.1634 164.502 77.308 166.558 76.8175 167.774C76.3256 168.99 75.5503 170.98 75.0916 172.196C74.6342 173.412 73.7761 175.8 73.1861 177.502C72.5946 179.205 71.6011 182.256 70.9765 184.282C70.3533 186.309 69.4413 189.459 68.9508 191.284C68.4602 193.107 67.6905 196.192 67.2401 198.137C66.7896 200.083 66.1982 202.802 65.9273 204.181C65.6552 205.559 65.282 207.515 65.0982 208.529C64.9145 209.542 64.5469 211.764 64.2802 213.467C64.0147 215.169 63.6431 217.822 63.4524 219.363C63.263 220.903 63.013 223.092 62.897 224.226C62.7824 225.361 62.5942 227.45 62.481 228.87C62.3677 230.287 62.1963 232.675 62.101 234.176C61.993 235.871 61.9267 240.108 61.9267 245.378C61.9267 250.647 61.993 254.885 62.101 256.58C62.1963 258.079 62.3677 260.466 62.481 261.886C62.5944 263.304 62.7821 265.394 62.897 266.529C63.0132 267.664 63.2631 269.853 63.4524 271.393C63.6431 272.933 64.0121 275.552 64.2732 277.215C64.533 278.876 64.8992 281.099 65.0871 282.153C65.2737 283.206 65.6536 285.196 65.93 286.574C66.2066 287.953 66.6762 290.156 66.9719 291.472C67.2677 292.787 67.7651 294.877 68.076 296.115C68.3869 297.353 68.9881 299.611 69.4123 301.134C69.8351 302.657 70.1584 303.921 70.1294 303.943C70.1007 303.965 68.3966 304.935 66.3445 306.098C64.2925 307.261 61.0589 309.139 59.159 310.271C57.259 311.404 54.368 313.163 52.7337 314.181C51.1003 315.198 48.4871 316.87 46.9301 317.894C45.3728 318.92 43.1965 320.38 42.0937 321.139C40.9924 321.898 39.406 323.017 38.5699 323.624C37.7339 324.233 36.4281 325.195 35.6682 325.762C34.9081 326.331 33.5401 327.393 32.6281 328.122C31.7161 328.852 30.3481 329.978 29.5881 330.628C28.8281 331.277 27.4904 332.472 26.6171 333.284C25.7438 334.098 24.2818 335.561 23.3698 336.537C22.4564 337.513 21.1865 339.006 20.5468 339.858C19.9056 340.71 19.0765 341.902 18.7034 342.511C18.3303 343.118 17.7569 344.214 17.4294 344.943C17.1021 345.673 16.6998 346.734 16.5367 347.301C16.3735 347.869 16.1705 348.997 16.0848 349.807C15.9592 351.019 15.9687 351.517 16.1429 352.608C16.2591 353.337 16.5259 354.399 16.7372 354.966C16.947 355.533 17.3852 356.428 17.7099 356.956C18.036 357.482 18.7283 358.353 19.2493 358.89C19.7702 359.426 20.6518 360.179 21.2087 360.564C21.7642 360.947 22.7273 361.51 23.3478 361.814C23.9682 362.118 24.9729 362.538 25.5809 362.746C26.1889 362.955 27.029 363.225 27.4463 363.345C27.865 363.466 28.86 363.702 29.6573 363.869C30.456 364.037 31.824 364.27 32.6973 364.388C33.572 364.505 35.157 364.684 36.221 364.784C37.3168 364.887 40.3734 364.967 43.2682 364.968C46.0803 364.97 49.6564 364.889 51.2138 364.789C52.7711 364.688 55.5086 364.477 57.2939 364.32C59.0807 364.161 61.7228 363.895 63.1666 363.732C64.6106 363.567 67.0357 363.266 68.5557 363.064C70.0758 362.862 72.6873 362.495 74.3593 362.25C76.0313 362.006 79.5758 361.438 82.2358 360.99C84.8958 360.541 88.968 359.817 91.2851 359.381C93.6011 358.944 95.5341 358.635 95.5787 358.694C95.6229 358.751 96.3788 359.86 97.2563 361.157C98.1351 362.454 99.5542 364.478 100.41 365.652C101.266 366.827 102.757 368.818 103.726 370.074C104.693 371.331 106.245 373.289 107.175 374.422C108.105 375.557 109.785 377.547 110.91 378.844C112.034 380.141 114.623 382.961 116.664 385.111C118.705 387.26 121.401 390.005 122.654 391.209C123.909 392.412 126.178 394.507 127.698 395.861C129.218 397.217 131.476 399.17 132.714 400.202C133.954 401.235 136.13 402.985 137.551 404.092C138.973 405.199 141.534 407.105 143.244 408.328C144.954 409.55 147.41 411.249 148.702 412.104C149.994 412.961 152.014 414.256 153.193 414.984C154.372 415.712 155.957 416.678 156.717 417.127C157.477 417.579 159.312 418.627 160.793 419.456C162.275 420.286 164.845 421.654 166.503 422.496C168.163 423.337 170.743 424.598 172.238 425.295C173.734 425.992 176.419 427.178 178.204 427.933C179.991 428.686 182.851 429.831 184.561 430.478C186.271 431.126 188.789 432.032 190.157 432.492C191.525 432.952 193.95 433.724 195.546 434.211C197.142 434.696 199.786 435.447 201.419 435.881C203.054 436.313 205.571 436.939 207.016 437.271C208.46 437.602 210.481 438.041 211.507 438.246C212.533 438.453 214.461 438.815 215.79 439.052C217.121 439.29 219.36 439.652 220.765 439.857C222.172 440.064 224.41 440.363 225.74 440.522C227.07 440.683 229.775 440.947 231.751 441.109C233.727 441.272 236.92 441.474 238.848 441.557C240.776 441.641 243.978 441.709 245.964 441.707C247.951 441.707 251.069 441.64 252.893 441.559C254.717 441.478 257.547 441.31 259.18 441.186C260.815 441.062 263.613 440.796 265.398 440.592C267.185 440.389 270.138 439.995 271.962 439.717C273.786 439.44 276.507 438.978 278.008 438.692C279.508 438.408 282.236 437.836 284.068 437.425C285.902 437.012 288.964 436.253 290.874 435.739C292.785 435.223 295.544 434.433 297.006 433.982C298.468 433.531 300.707 432.801 301.981 432.359C303.255 431.917 305.227 431.215 306.363 430.801C307.5 430.387 309.707 429.524 311.268 428.886C312.83 428.248 315.021 427.327 316.139 426.839C317.256 426.349 319.402 425.369 320.906 424.657C322.411 423.947 325.602 422.323 327.995 421.049C330.389 419.776 333.592 417.993 335.112 417.09C336.632 416.188 339.057 414.695 340.501 413.774C341.945 412.852 344.167 411.381 345.438 410.506C346.71 409.629 348.864 408.099 350.225 407.106C351.586 406.111 354.059 404.218 355.72 402.897C357.381 401.577 359.83 399.565 361.159 398.424C362.49 397.284 364.542 395.468 365.719 394.391C366.898 393.312 368.853 391.462 370.066 390.28C371.28 389.096 373.408 386.946 374.797 385.498C376.184 384.051 378.464 381.564 379.861 379.971C381.258 378.378 383.111 376.213 383.979 375.159C384.845 374.105 386.056 372.612 386.668 371.842C387.281 371.071 388.58 369.381 389.555 368.084C390.53 366.787 392.21 364.465 393.288 362.925C394.366 361.385 395.972 359.023 396.855 357.677C397.738 356.332 399.262 353.911 400.242 352.297C401.223 350.685 402.772 348.038 403.684 346.416C404.596 344.795 406.069 342.076 406.956 340.373C407.843 338.671 409.525 335.222 410.694 332.709C411.864 330.196 413.419 326.692 414.151 324.922C414.884 323.153 415.937 320.5 416.492 319.026C417.048 317.553 417.921 315.154 418.432 313.694C418.945 312.235 419.884 309.376 420.52 307.34C421.157 305.305 422.141 301.922 422.708 299.822C423.274 297.721 424.017 294.81 424.359 293.352C424.702 291.893 425.263 289.34 425.608 287.679C425.952 286.017 426.485 283.231 426.792 281.489C427.1 279.745 427.569 276.778 427.837 274.893C428.104 273.006 428.475 270.088 428.662 268.408C428.85 266.726 429.125 263.789 429.274 261.885C429.423 259.98 429.621 257.029 429.715 255.326C429.808 253.624 429.889 249.273 429.894 245.656L429.903 239.082L434.739 236.486C437.399 235.058 441.411 232.853 443.652 231.587C445.894 230.319 449.531 228.217 451.736 226.916C453.94 225.613 457.386 223.526 459.392 222.275C461.4 221.025 464.447 219.067 466.164 217.926C467.881 216.784 470.498 214.989 471.98 213.936C473.462 212.885 475.514 211.392 476.54 210.62C477.566 209.848 479.183 208.584 480.132 207.814C481.083 207.043 482.762 205.614 483.863 204.639C484.966 203.664 486.792 201.902 487.922 200.722C489.052 199.543 490.474 197.948 491.081 197.179C491.687 196.408 492.54 195.216 492.974 194.526C493.408 193.836 493.953 192.908 494.187 192.462C494.419 192.016 494.831 191.055 495.1 190.325C495.37 189.596 495.696 188.402 495.825 187.672C495.993 186.71 496.034 185.961 495.973 184.945C495.928 184.174 495.8 183.19 495.689 182.756C495.578 182.323 495.269 181.476 495 180.873C494.732 180.27 494.239 179.397 493.903 178.935C493.569 178.47 492.991 177.789 492.621 177.421C492.251 177.053 491.574 176.48 491.118 176.152C490.662 175.821 489.791 175.285 489.183 174.959C488.575 174.634 487.539 174.165 486.881 173.916C486.222 173.668 484.916 173.267 483.979 173.023C483.041 172.779 481.435 172.449 480.408 172.287C479.383 172.126 477.704 171.906 476.677 171.801C475.424 171.669 472.681 171.607 468.317 171.61C464.545 171.613 460.838 171.691 459.474 171.797C458.182 171.898 455.975 172.082 454.568 172.207C453.163 172.331 450.582 172.597 448.834 172.795C447.086 172.994 444.163 173.357 442.339 173.603C440.515 173.848 437.127 174.346 434.808 174.712C432.491 175.075 428.387 175.768 425.688 176.25C422.991 176.732 420.296 177.219 419.702 177.332L418.62 177.537L418.478 177.151C418.401 176.939 418.04 175.935 417.678 174.922C417.316 173.908 416.662 172.151 416.227 171.016C415.792 169.881 414.844 167.526 414.12 165.783C413.396 164.041 412.17 161.22 411.396 159.516C410.621 157.812 409.344 155.125 408.556 153.547C407.77 151.968 406.432 149.381 405.584 147.801C404.735 146.22 403.432 143.866 402.687 142.569C401.941 141.272 400.319 138.584 399.082 136.599C397.844 134.612 395.948 131.694 394.869 130.113C393.79 128.532 392.067 126.088 391.04 124.682C390.014 123.274 388.362 121.086 387.37 119.818C386.378 118.549 384.853 116.649 383.982 115.595C383.111 114.541 381.294 112.419 379.944 110.879C378.596 109.338 376.382 106.915 375.025 105.494C373.668 104.073 371.656 102.024 370.553 100.94C369.452 99.8547 367.43 97.9399 366.062 96.6857C364.694 95.4299 362.487 93.4696 361.157 92.3302C359.827 91.1894 357.379 89.1773 355.718 87.8564C354.057 86.5357 351.584 84.6431 350.223 83.6482C348.861 82.6548 346.707 81.1248 345.436 80.2494C344.165 79.3738 342.005 77.9396 340.637 77.0626C339.269 76.1856 336.844 74.6924 335.248 73.7433C333.652 72.7941 330.386 70.9768 327.993 69.7032C325.6 68.4312 322.426 66.8157 320.94 66.114C319.455 65.4109 317.029 64.3084 315.551 63.6628C314.072 63.0158 311.524 61.9574 309.891 61.3089C308.258 60.6604 305.676 59.6875 304.157 59.148C302.637 58.6071 300.173 57.7758 298.68 57.2997C297.189 56.8236 294.672 56.0645 293.084 55.615C291.497 55.1654 288.864 54.4698 287.229 54.0703C285.596 53.6693 282.984 53.0754 281.426 52.7482C279.868 52.4226 277.473 51.9552 276.106 51.712C274.737 51.4689 272.499 51.1033 271.131 50.8999C269.763 50.6965 267.183 50.3633 265.396 50.1613C263.611 49.958 260.812 49.6912 259.178 49.5674C257.544 49.4434 254.714 49.2754 252.89 49.1942C251.066 49.1131 247.648 49.062 245.292 49.0764ZM247.365 54.4403C250.861 54.4664 254.716 54.5581 255.932 54.6423C257.148 54.7261 259.325 54.8989 260.769 55.0254C262.213 55.152 264.7 55.4159 266.296 55.6106C267.892 55.8035 270.504 56.1677 272.1 56.4197C273.696 56.6702 276.342 57.1376 277.979 57.4559C279.617 57.7758 282.228 58.33 283.783 58.6896C285.337 59.0479 287.884 59.6832 289.442 60.0989C291 60.516 293.456 61.2161 294.9 61.6538C296.344 62.0916 298.598 62.8138 299.907 63.2574C301.217 63.7011 303.3 64.4396 304.536 64.898C305.772 65.3564 308.014 66.226 309.52 66.8303C311.025 67.4361 313.419 68.4502 314.84 69.0854C316.261 69.7222 318.48 70.7525 319.772 71.376C321.064 71.9995 323.551 73.2626 325.299 74.1823C327.047 75.102 329.472 76.4286 330.689 77.1318C331.905 77.8349 333.832 78.9773 334.972 79.6715C336.112 80.3658 338.258 81.7306 339.74 82.7035C341.222 83.6778 343.554 85.2681 344.921 86.2393C346.289 87.2107 348.247 88.6374 349.274 89.4099C350.301 90.1837 352.135 91.612 353.351 92.5847C354.567 93.5575 356.61 95.2482 357.894 96.3449C359.177 97.4401 361.166 99.1955 362.316 100.246C363.464 101.297 365.308 103.023 366.409 104.083C367.512 105.143 370.16 107.868 372.293 110.14C374.428 112.411 377.103 115.364 378.238 116.701C379.374 118.038 381.021 120.028 381.9 121.123C382.778 122.217 384.397 124.307 385.495 125.766C386.595 127.226 388.148 129.348 388.948 130.483C389.747 131.618 391.086 133.574 391.922 134.831C392.759 136.087 394.066 138.111 394.826 139.327C395.586 140.543 396.927 142.764 397.804 144.264C398.68 145.765 399.924 147.952 400.568 149.128C401.211 150.303 402.331 152.426 403.057 153.845C403.784 155.263 405.153 158.083 406.102 160.109C407.05 162.136 408.389 165.121 409.079 166.742C409.767 168.364 410.867 171.082 411.523 172.783C412.179 174.485 413.266 177.47 413.936 179.416C414.607 181.363 415.572 184.315 416.082 185.977C416.59 187.639 417.411 190.491 417.903 192.315C418.396 194.139 419.136 197.058 419.546 198.801C419.956 200.543 420.569 203.329 420.908 204.991C421.247 206.652 421.775 209.476 422.082 211.266C422.387 213.054 422.856 216.138 423.122 218.12C423.389 220.099 423.762 223.279 423.95 225.184C424.138 227.089 424.311 228.98 424.334 229.385L424.377 230.122L421.544 231.627C419.987 232.455 416.721 234.138 414.289 235.369C411.857 236.6 407.847 238.602 405.376 239.816C402.907 241.032 398.741 243.052 396.118 244.305C393.497 245.557 388.709 247.813 385.478 249.314C382.249 250.816 377.026 253.204 373.871 254.622C370.717 256.038 366.022 258.128 363.438 259.265C360.854 260.401 355.444 262.742 351.416 264.465C347.388 266.188 341.45 268.694 338.219 270.034C334.99 271.374 330.108 273.378 327.372 274.49C324.636 275.601 319.816 277.536 316.663 278.791C313.509 280.043 307.446 282.42 303.19 284.067C298.934 285.717 292.777 288.072 289.51 289.301C286.242 290.532 281.05 292.467 277.971 293.602C274.894 294.736 269.981 296.531 267.055 297.589C264.129 298.648 259.683 300.237 257.175 301.119C254.667 302.002 249.973 303.646 246.742 304.77C243.512 305.896 237.822 307.845 234.098 309.102C230.374 310.36 224.809 312.218 221.731 313.231C218.653 314.244 213.336 315.968 209.916 317.062C206.496 318.157 201.678 319.684 199.207 320.456C196.738 321.229 191.328 322.887 187.185 324.143C183.044 325.399 176.918 327.222 173.574 328.196C170.23 329.169 164.758 330.734 161.414 331.673C158.07 332.612 151.633 334.368 147.112 335.573C142.591 336.777 135.968 338.498 132.396 339.392C128.824 340.289 123.228 341.652 119.96 342.421C116.692 343.192 112.339 344.196 110.287 344.651C108.235 345.107 104.536 345.903 102.065 346.422C99.5957 346.939 96.9524 347.487 96.1923 347.639L94.8105 347.916L94.5204 347.462C94.3601 347.212 93.4965 345.714 92.6025 344.133C91.707 342.553 90.263 339.899 89.3952 338.237C88.526 336.576 86.9562 333.39 85.9075 331.162C84.8573 328.932 83.4354 325.782 82.7487 324.161C82.0606 322.539 80.9717 319.851 80.3291 318.186C79.6879 316.521 78.664 313.735 78.0546 311.996C77.4452 310.255 76.4116 307.091 75.7553 304.964C75.1003 302.835 74.2297 299.851 73.8207 298.33C73.4116 296.809 72.7304 294.105 72.3076 292.322C71.8847 290.54 71.2574 287.72 70.9147 286.059C70.5719 284.396 70.0427 281.578 69.7387 279.794C69.4335 278.011 69.0298 275.457 68.8419 274.12C68.6525 272.781 68.3721 270.626 68.2187 269.329C68.0653 268.032 67.8166 265.644 67.666 264.023C67.5167 262.402 67.3272 260.08 67.2459 258.864C67.1657 257.648 67.0385 255.293 66.9669 253.631C66.8937 251.969 66.8327 248.288 66.8315 245.451C66.8315 242.614 66.8924 238.865 66.9681 237.123C67.0442 235.38 67.2017 232.594 67.3179 230.933C67.4353 229.27 67.6538 226.684 67.803 225.184C67.9535 223.684 68.299 220.766 68.5699 218.699C68.8407 216.631 69.3368 213.328 69.6726 211.356C70.0068 209.383 70.5583 206.425 70.8983 204.78C71.237 203.135 71.8324 200.437 72.222 198.784C72.6103 197.132 73.2045 194.731 73.5431 193.449C73.8818 192.167 74.4952 189.978 74.907 188.585C75.3188 187.192 76.0249 184.89 76.4768 183.472C76.9286 182.052 77.6084 179.998 77.9884 178.903C78.3685 177.807 79.2059 175.52 79.8512 173.817C80.4951 172.115 81.5729 169.399 82.2431 167.781C82.9147 166.164 84.3117 163.014 85.3495 160.78C86.3873 158.547 87.6903 155.825 88.2459 154.729C88.8013 153.634 89.8806 151.578 90.642 150.16C91.4047 148.741 92.741 146.354 93.6102 144.857C94.4793 143.358 96.1142 140.663 97.243 138.868C98.3706 137.072 100.08 134.451 101.041 133.043C102.002 131.636 103.613 129.355 104.623 127.977C105.632 126.599 107.319 124.369 108.372 123.022C109.425 121.675 111.195 119.486 112.303 118.158C113.413 116.83 115.415 114.531 116.756 113.049C118.095 111.566 120.328 109.186 121.718 107.756C123.106 106.328 125.333 104.125 126.662 102.859C127.993 101.594 129.826 99.8928 130.739 99.0792C131.651 98.2656 133.175 96.9346 134.124 96.1209C135.075 95.3088 136.971 93.748 138.339 92.6527C139.707 91.5576 141.666 90.032 142.692 89.2642C143.718 88.4948 145.397 87.2669 146.422 86.5344C147.449 85.8033 149.377 84.4738 150.706 83.5807C152.037 82.6889 154.057 81.3756 155.197 80.6622C156.337 79.9489 158.389 78.7077 159.757 77.9044C161.125 77.1026 163.829 75.6006 165.768 74.5673C167.707 73.5341 169.821 72.4331 170.466 72.1191C171.113 71.8067 172.325 71.2229 173.161 70.8235C173.997 70.4242 175.8 69.6017 177.168 68.9944C178.536 68.3871 180.464 67.5587 181.452 67.1519C182.44 66.7452 184.732 65.8518 186.545 65.1679C188.358 64.4825 191.147 63.492 192.743 62.9673C194.337 62.4411 197.221 61.5523 199.151 60.9922C201.08 60.4306 204.042 59.6406 205.735 59.2338C207.427 58.8271 209.558 58.3288 210.47 58.1269C211.382 57.9266 213.59 57.4931 215.376 57.1659C217.162 56.8373 219.712 56.4067 221.041 56.2077C222.372 56.01 224.61 55.7111 226.016 55.5445C227.422 55.3778 229.661 55.1435 230.99 55.0242C232.321 54.9033 234.622 54.7353 236.103 54.6497C237.586 54.5629 239.295 54.4699 239.903 54.442C240.511 54.4158 243.869 54.4156 247.365 54.4403ZM469.426 182.22C472.543 182.247 475.714 182.34 476.474 182.431C477.234 182.522 478.629 182.735 479.575 182.901C480.52 183.069 481.826 183.369 482.476 183.569C483.127 183.769 484.075 184.137 484.584 184.384C485.092 184.633 485.646 184.993 485.815 185.186L486.122 185.534L485.95 186.163C485.855 186.508 485.619 187.089 485.425 187.454C485.232 187.818 484.733 188.605 484.318 189.201C483.903 189.798 483.097 190.825 482.528 191.486C481.958 192.146 480.892 193.278 480.158 194.002C479.424 194.724 478.139 195.924 477.303 196.666C476.467 197.409 474.788 198.814 473.572 199.788C472.356 200.763 470.273 202.36 468.943 203.341C467.614 204.321 465.064 206.113 463.278 207.323C461.492 208.533 458.787 210.318 457.267 211.291C455.747 212.262 453.416 213.722 452.085 214.534C450.756 215.346 448.586 216.653 447.265 217.44C445.944 218.226 443.084 219.884 440.909 221.124C438.734 222.363 435.225 224.324 433.112 225.479C430.998 226.633 429.25 227.555 429.227 227.525C429.206 227.495 429.047 226.079 428.878 224.377C428.71 222.674 428.327 219.479 428.029 217.274C427.73 215.07 427.234 211.82 426.929 210.051C426.622 208.284 426.153 205.742 425.888 204.405C425.621 203.068 424.971 200.115 424.441 197.846C423.912 195.576 423.116 192.392 422.671 190.77C422.124 188.77 421.913 187.792 422.016 187.727C422.099 187.675 424.252 187.263 426.797 186.81C429.344 186.358 432.64 185.792 434.121 185.55C435.604 185.308 437.935 184.944 439.303 184.739C440.671 184.536 443.034 184.204 444.554 184.002C446.074 183.802 448.842 183.47 450.703 183.265C452.566 183.061 455.332 182.788 456.852 182.659C458.372 182.531 460.549 182.369 461.689 182.301C462.829 182.232 466.31 182.196 469.426 182.22ZM424.838 241.843C425.024 241.843 425.036 242.485 424.954 247.333C424.903 250.353 424.801 253.951 424.727 255.329C424.653 256.707 424.525 258.796 424.443 259.972C424.36 261.147 424.141 263.668 423.953 265.573C423.765 267.478 423.393 270.658 423.127 272.638C422.86 274.619 422.396 277.673 422.096 279.425C421.796 281.178 421.268 283.998 420.925 285.691C420.583 287.386 419.964 290.202 419.553 291.95C419.141 293.696 418.401 296.618 417.907 298.443C417.414 300.266 416.657 302.919 416.224 304.339C415.792 305.757 414.918 308.455 414.282 310.333C413.646 312.211 412.603 315.129 411.964 316.819C411.326 318.508 410.254 321.215 409.581 322.837C408.908 324.458 407.475 327.686 406.397 330.011C405.318 332.335 403.829 335.419 403.089 336.864C402.347 338.31 401.215 340.455 400.572 341.63C399.928 342.804 398.685 344.993 397.809 346.493C396.931 347.992 395.592 350.215 394.831 351.431C394.071 352.647 392.674 354.802 391.727 356.222C390.781 357.64 389.149 359.995 388.1 361.454C387.052 362.913 385.532 364.97 384.724 366.024C383.916 367.077 382.589 368.768 381.778 369.782C380.967 370.795 379.371 372.718 378.232 374.057C377.092 375.393 374.946 377.808 373.463 379.419C371.979 381.03 369.553 383.55 368.069 385.02C366.585 386.489 364.47 388.525 363.371 389.545C362.271 390.564 360.499 392.159 359.435 393.089C358.371 394.019 356.568 395.549 355.428 396.488C354.288 397.427 352.283 399.028 350.971 400.046C349.66 401.064 347.391 402.754 345.928 403.802C344.464 404.849 342.18 406.432 340.849 407.32C339.52 408.208 337.468 409.533 336.289 410.266C335.112 411 333.215 412.149 332.075 412.821C330.935 413.493 328.572 414.819 326.824 415.765C325.076 416.711 322.526 418.036 321.16 418.708C319.792 419.382 317.397 420.514 315.84 421.221C314.281 421.93 311.607 423.078 309.896 423.771C308.187 424.464 305.761 425.407 304.507 425.867C303.254 426.327 301.264 427.033 300.085 427.434C298.908 427.836 296.762 428.529 295.318 428.973C293.874 429.416 291.232 430.171 289.445 430.649C287.66 431.126 285.011 431.788 283.56 432.121C282.109 432.454 279.56 432.994 277.894 433.318C276.229 433.644 273.374 434.138 271.55 434.416C269.726 434.693 267.114 435.054 265.747 435.216C264.379 435.379 262.11 435.613 260.703 435.737C259.298 435.861 257.121 436.03 255.867 436.112C254.613 436.197 251.317 436.304 248.543 436.354C245.508 436.409 241.902 436.376 239.492 436.273C237.288 436.179 234.241 436.002 232.721 435.878C231.201 435.755 229.056 435.557 227.953 435.437C226.852 435.318 224.955 435.088 223.739 434.924C222.523 434.762 220.689 434.497 219.662 434.333C218.637 434.171 216.709 433.84 215.379 433.595C214.049 433.352 212.028 432.951 210.887 432.706C209.747 432.46 207.976 432.061 206.949 431.817C205.924 431.576 204.432 431.209 203.633 431.004C202.836 430.8 200.936 430.276 199.411 429.841C197.887 429.404 195.586 428.709 194.299 428.293C193.011 427.877 191.273 427.303 190.437 427.014C189.6 426.726 187.622 426.001 186.041 425.404C184.459 424.807 181.847 423.762 180.238 423.083C178.626 422.403 176.407 421.435 175.306 420.932C174.204 420.428 172.152 419.451 170.746 418.758C169.341 418.065 167.133 416.936 165.84 416.248C164.548 415.558 162.303 414.31 160.849 413.472C159.397 412.634 157.22 411.34 156.013 410.595C154.806 409.851 152.669 408.479 151.262 407.546C149.857 406.613 147.385 404.9 145.77 403.737C144.156 402.575 142.134 401.082 141.279 400.421C140.423 399.759 138.853 398.518 137.789 397.663C136.725 396.809 135.078 395.446 134.128 394.634C133.178 393.821 131.654 392.492 130.742 391.678C129.83 390.865 127.996 389.164 126.666 387.899C125.336 386.633 123.11 384.429 121.721 383.001C120.331 381.571 118.098 379.191 116.759 377.708C115.42 376.227 113.517 374.052 112.532 372.877C111.547 371.7 109.702 369.413 108.432 367.792C107.164 366.17 105.316 363.732 104.327 362.375C103.338 361.017 102.169 359.372 101.728 358.721C101.288 358.07 100.951 357.52 100.98 357.499C101.009 357.482 102.557 357.145 104.418 356.758C106.281 356.37 109.731 355.623 112.087 355.098C114.443 354.575 119.045 353.512 122.313 352.74C125.581 351.967 130.898 350.673 134.127 349.864C137.358 349.055 143.109 347.573 146.909 346.572C150.709 345.57 156.368 344.045 159.484 343.181C162.6 342.319 167.699 340.881 170.815 339.988C173.931 339.096 178.687 337.712 181.386 336.912C184.085 336.113 187.97 334.952 190.022 334.333C192.074 333.712 196.397 332.385 199.626 331.383C202.857 330.381 208.329 328.658 211.786 327.552C215.245 326.447 220.001 324.911 222.357 324.139C224.713 323.366 228.725 322.041 231.27 321.192C233.817 320.343 238.903 318.623 242.576 317.367C246.248 316.113 252.341 313.997 256.118 312.666C259.893 311.333 265.47 309.354 268.51 308.264C271.55 307.176 276.868 305.246 280.325 303.972C283.784 302.7 289.659 300.51 293.383 299.103C297.107 297.699 303.263 295.343 307.063 293.869C310.863 292.397 316.77 290.077 320.19 288.716C323.61 287.354 328.244 285.497 330.485 284.588C332.728 283.678 336.614 282.085 339.122 281.047C341.63 280.01 346.045 278.166 348.933 276.952C351.821 275.738 356.641 273.682 359.642 272.383C362.645 271.084 366.561 269.381 368.348 268.595C370.134 267.809 372.933 266.568 374.566 265.837C376.201 265.106 379.651 263.545 382.235 262.369C384.819 261.191 388.923 259.303 391.355 258.17C393.787 257.038 397.858 255.116 400.401 253.9C402.943 252.682 406.954 250.74 409.313 249.58C411.672 248.42 415.375 246.577 417.541 245.484C419.708 244.39 422.188 243.122 423.054 242.668C423.921 242.213 424.724 241.843 424.838 241.843ZM73.4668 314.181C73.5098 314.236 73.876 315.21 74.2822 316.345C74.6872 317.48 75.4069 319.403 75.8809 320.619C76.3549 321.835 77.0997 323.691 77.5364 324.743C77.973 325.796 78.8546 327.852 79.4944 329.313C80.1356 330.773 81.317 333.328 82.1199 334.99C82.9241 336.653 84.2037 339.206 84.9666 340.665C85.728 342.124 87.0545 344.576 87.9126 346.113C88.7721 347.65 89.4631 348.922 89.4465 348.938C89.4301 348.956 87.1499 349.369 84.3752 349.858C81.6006 350.347 78.0574 350.949 76.4987 351.193C74.9414 351.438 72.298 351.836 70.626 352.078C68.954 352.318 65.9071 352.718 63.855 352.964C61.803 353.21 58.6634 353.541 56.8769 353.701C55.0916 353.861 52.542 354.059 51.2112 354.141C49.8819 354.224 47.3324 354.334 45.5455 354.386C43.7008 354.439 40.9856 354.408 39.2584 354.317C37.5864 354.227 35.4417 354.053 34.4911 353.929C33.5418 353.805 32.1158 353.567 31.3239 353.399C30.532 353.229 29.4266 352.931 28.8656 352.737C28.3059 352.542 27.5542 352.222 27.1963 352.028C26.8383 351.832 26.4004 351.527 26.2235 351.348C25.9818 351.103 25.9224 350.927 25.9871 350.635C26.0341 350.421 26.2538 349.848 26.4762 349.361C26.6988 348.875 27.2804 347.913 27.7682 347.224C28.256 346.534 29.2026 345.351 29.8714 344.593C30.5402 343.836 31.8695 342.482 32.8244 341.589C33.7793 340.695 35.3684 339.284 36.3563 338.454C37.3443 337.624 38.9927 336.292 40.0181 335.491C41.0448 334.693 43.2833 333.042 44.9929 331.823C46.7036 330.604 49.3138 328.803 50.7964 327.823C52.2791 326.841 54.6103 325.326 55.9781 324.454C57.3461 323.583 60.212 321.822 62.3471 320.54C64.4806 319.256 67.8384 317.278 69.8091 316.143C71.7782 315.009 73.4241 314.125 73.4668 314.181ZM424.74 378.071C423.639 378.08 422.17 378.145 421.476 378.211C420.784 378.278 419.602 378.437 418.851 378.565C418.1 378.693 416.778 378.966 415.911 379.174C415.046 379.38 413.596 379.811 412.689 380.13C411.781 380.45 410.437 380.979 409.701 381.305C408.966 381.632 407.536 382.357 406.523 382.919C405.509 383.481 403.891 384.499 402.928 385.185C401.963 385.87 400.399 387.121 399.45 387.967C398.502 388.813 397.115 390.184 396.368 391.016C395.621 391.845 394.507 393.198 393.891 394.021C393.276 394.843 392.324 396.247 391.775 397.138C391.226 398.03 390.458 399.376 390.068 400.129C389.679 400.882 389.089 402.142 388.759 402.929C388.427 403.716 387.928 405.013 387.649 405.809C387.37 406.607 386.928 408.066 386.668 409.052C386.407 410.04 386.04 411.74 385.853 412.835C385.666 413.929 385.438 415.72 385.347 416.815C385.245 418.055 385.213 419.944 385.263 421.827C385.308 423.488 385.445 425.544 385.568 426.396C385.689 427.246 385.938 428.673 386.119 429.565C386.3 430.457 386.608 431.776 386.806 432.497C387.003 433.217 387.388 434.445 387.66 435.223C387.933 436.003 388.427 437.284 388.758 438.071C389.088 438.858 389.679 440.118 390.068 440.872C390.458 441.625 391.226 442.97 391.775 443.862C392.323 444.754 393.291 446.179 393.924 447.031C394.558 447.882 395.89 449.444 396.884 450.501C397.879 451.559 399.313 452.952 400.073 453.596C400.831 454.242 402.209 455.306 403.135 455.96C404.059 456.615 405.684 457.626 406.744 458.205C407.806 458.786 409.536 459.619 410.591 460.057C411.647 460.494 413.195 461.057 414.031 461.308C414.867 461.56 416.142 461.893 416.864 462.052C417.586 462.21 418.892 462.446 419.765 462.577C420.64 462.708 422.381 462.854 423.634 462.904C424.989 462.956 426.756 462.922 427.987 462.814C429.127 462.715 430.776 462.506 431.649 462.347C432.524 462.188 433.954 461.865 434.827 461.628C435.702 461.39 437.143 460.929 438.033 460.602C438.922 460.275 440.29 459.704 441.073 459.334C441.855 458.964 443.019 458.36 443.657 457.992C444.296 457.625 445.384 456.949 446.075 456.494C446.768 456.037 448.049 455.089 448.922 454.385C449.797 453.68 451.086 452.545 451.788 451.861C452.489 451.177 453.631 449.961 454.325 449.157C455.019 448.352 456.099 446.965 456.728 446.073C457.357 445.181 458.262 443.79 458.74 442.979C459.218 442.17 460.004 440.677 460.486 439.663C460.97 438.649 461.672 436.979 462.048 435.951C462.422 434.926 462.949 433.267 463.217 432.267C463.485 431.267 463.824 429.818 463.97 429.049C464.117 428.278 464.346 426.786 464.479 425.732C464.65 424.381 464.72 422.84 464.72 420.5C464.719 418.271 464.644 416.573 464.491 415.325C464.365 414.303 464.136 412.812 463.982 412.008C463.829 411.207 463.485 409.733 463.217 408.733C462.949 407.732 462.422 406.074 462.048 405.048C461.672 404.021 460.97 402.351 460.486 401.337C460.004 400.323 459.218 398.83 458.74 398.021C458.262 397.21 457.356 395.819 456.728 394.927C456.099 394.035 455.018 392.648 454.325 391.843C453.631 391.039 452.488 389.822 451.788 389.138C451.086 388.455 449.797 387.32 448.922 386.615C448.049 385.911 446.768 384.963 446.075 384.506C445.384 384.05 444.295 383.375 443.657 383.008C443.019 382.64 441.855 382.035 441.073 381.666C440.29 381.295 438.922 380.725 438.033 380.398C437.143 380.071 435.701 379.608 434.827 379.372C433.953 379.135 432.492 378.809 431.58 378.647C430.668 378.486 429.207 378.286 428.333 378.203C427.459 378.119 425.843 378.061 424.74 378.071ZM425.638 383.433C427.158 383.464 429.024 383.588 429.784 383.709C430.544 383.83 431.787 384.07 432.547 384.243C433.307 384.417 434.89 384.896 436.064 385.31C437.351 385.764 439.053 386.516 440.348 387.201C441.529 387.827 443.243 388.871 444.155 389.521C445.067 390.169 446.335 391.15 446.972 391.699C447.609 392.248 448.769 393.372 449.548 394.198C450.326 395.023 451.479 396.388 452.109 397.23C452.739 398.071 453.647 399.396 454.126 400.176C454.606 400.956 455.396 402.415 455.885 403.419C456.373 404.423 457.056 406.007 457.401 406.94C457.748 407.871 458.252 409.497 458.523 410.551C458.794 411.605 459.137 413.213 459.286 414.123C459.434 415.034 459.629 416.842 459.717 418.139C459.841 419.94 459.841 421.058 459.718 422.85C459.63 424.141 459.459 425.817 459.338 426.572C459.22 427.326 458.913 428.815 458.659 429.881C458.404 430.946 457.97 432.472 457.695 433.271C457.419 434.07 456.735 435.719 456.175 436.935C455.614 438.151 454.729 439.841 454.206 440.693C453.684 441.544 452.74 442.929 452.11 443.771C451.48 444.613 450.326 445.978 449.548 446.803C448.769 447.628 447.609 448.753 446.972 449.301C446.335 449.851 445.067 450.831 444.155 451.481C443.243 452.131 441.502 453.184 440.286 453.82C439.07 454.456 437.255 455.274 436.254 455.638C435.252 456 433.715 456.469 432.84 456.678C431.966 456.887 430.609 457.157 429.825 457.278C429.043 457.399 427.407 457.541 426.191 457.593C424.852 457.648 423.257 457.614 422.146 457.511C421.138 457.416 419.647 457.208 418.832 457.047C418.016 456.888 416.665 456.562 415.829 456.323C414.991 456.085 413.625 455.619 412.791 455.289C411.958 454.958 410.455 454.254 409.452 453.725C408.447 453.196 406.817 452.186 405.829 451.481C404.839 450.777 403.41 449.652 402.653 448.98C401.896 448.309 400.676 447.093 399.943 446.28C399.211 445.465 398.23 444.29 397.766 443.668C397.3 443.044 396.494 441.85 395.976 441.012C395.457 440.173 394.741 438.919 394.387 438.225C394.032 437.53 393.476 436.319 393.152 435.532C392.827 434.746 392.338 433.418 392.066 432.582C391.792 431.746 391.416 430.42 391.231 429.636C391.044 428.852 390.753 427.354 390.583 426.308C390.316 424.665 390.275 423.876 390.275 420.501C390.275 417.125 390.316 416.337 390.583 414.693C390.753 413.647 391.043 412.155 391.23 411.377C391.415 410.599 391.748 409.397 391.97 408.709C392.192 408.019 392.571 406.925 392.813 406.277C393.055 405.628 393.628 404.334 394.084 403.403C394.542 402.47 395.367 400.978 395.918 400.086C396.468 399.195 397.292 397.967 397.746 397.359C398.201 396.751 399.098 395.662 399.739 394.938C400.38 394.216 401.588 392.998 402.424 392.235C403.26 391.47 404.784 390.251 405.809 389.524C406.836 388.797 408.49 387.776 409.486 387.254C410.484 386.732 411.964 386.038 412.776 385.712C413.589 385.386 415.074 384.893 416.078 384.613C417.079 384.334 418.492 383.999 419.213 383.871C419.936 383.742 421.055 383.578 421.7 383.507C422.347 383.435 424.118 383.402 425.638 383.433ZM78.6647 394.037C77.428 393.998 76.3322 394.046 75.6247 394.17C75.0167 394.278 74.0412 394.506 73.4567 394.678C72.8735 394.849 71.8344 395.249 71.149 395.564C70.4622 395.88 69.2724 396.584 68.5029 397.131C67.7166 397.69 66.5711 398.692 65.8871 399.423C65.2155 400.14 64.262 401.373 63.7618 402.175C63.2629 402.974 62.637 404.137 62.3717 404.759C62.1066 405.381 61.7305 406.442 61.5384 407.116C61.3449 407.789 61.0934 409.004 60.9802 409.813C60.8656 410.622 60.7715 411.847 60.7715 412.537C60.7715 413.225 60.8628 414.419 60.9732 415.19C61.0837 415.959 61.3021 417.069 61.4555 417.656C61.6101 418.241 61.9723 419.304 62.2611 420.017C62.5487 420.731 63.1302 421.876 63.5517 422.563C63.9731 423.251 64.6447 424.222 65.0441 424.722C65.4422 425.222 66.2532 426.066 66.8446 426.6C67.4374 427.132 68.4545 427.925 69.1067 428.363C69.7603 428.799 70.8478 429.393 71.5249 429.683C72.2019 429.972 73.2466 430.341 73.8449 430.501C74.4433 430.662 75.4203 430.865 76.0144 430.951C76.6086 431.038 77.6035 431.109 78.2254 431.107C78.8472 431.107 79.9761 431.007 80.7348 430.885C81.4934 430.764 82.632 430.495 83.2636 430.289C83.895 430.084 84.89 429.683 85.4731 429.4C86.0562 429.117 87.1465 428.45 87.8955 427.918C88.6472 427.384 89.8038 426.367 90.4755 425.651C91.1609 424.921 92.1005 423.699 92.6242 422.86C93.1369 422.039 93.796 420.773 94.0903 420.045C94.3849 419.317 94.7522 418.241 94.907 417.656C95.0605 417.069 95.2789 415.959 95.3893 415.19C95.4997 414.419 95.591 413.225 95.591 412.537C95.591 411.847 95.4997 410.653 95.3893 409.884C95.2788 409.113 95.0604 408.004 94.907 407.418C94.7524 406.833 94.3847 405.757 94.0903 405.028C93.7962 404.3 93.1369 403.034 92.6242 402.213C92.1005 401.374 91.1609 400.153 90.4755 399.423C89.8025 398.704 88.6473 397.689 87.8915 397.153C87.1398 396.619 86.0937 395.974 85.5659 395.717C85.038 395.463 84.2655 395.125 83.8469 394.969C83.4296 394.812 82.5273 394.553 81.8433 394.392C81.0666 394.21 79.8738 394.076 78.6647 394.037ZM78.5265 399.332C79.5988 399.371 80.5743 399.5 81.2901 399.698C81.8981 399.867 82.9635 400.303 83.6558 400.667C84.3495 401.031 85.3458 401.687 85.8709 402.127C86.396 402.564 87.1076 403.279 87.4531 403.714C87.7984 404.149 88.2808 404.819 88.5268 405.206C88.7726 405.59 89.1873 406.386 89.4484 406.974C89.7082 407.561 90.0579 408.572 90.2223 409.221C90.4669 410.177 90.5234 410.802 90.5234 412.537C90.5234 414.272 90.4669 414.897 90.2223 415.854C90.0578 416.502 89.711 417.51 89.4512 418.092C89.1927 418.676 88.7175 419.566 88.3955 420.071C88.0735 420.576 87.4268 421.399 86.9584 421.9C86.4885 422.399 85.7175 423.089 85.2436 423.433C84.771 423.776 83.9363 424.283 83.3891 424.559C82.8433 424.836 81.8981 425.198 81.2901 425.365C80.6821 425.533 79.5628 425.707 78.8028 425.752C77.83 425.811 77.0396 425.766 76.1346 425.598C75.4271 425.465 74.3658 425.158 73.7744 424.915C73.1844 424.672 72.3152 424.225 71.8454 423.922C71.3756 423.618 70.6073 423.039 70.1388 422.635C69.6704 422.23 68.927 421.416 68.4876 420.825C68.0468 420.234 67.4056 419.139 67.0601 418.391C66.7148 417.644 66.3001 416.502 66.137 415.853C65.8993 414.908 65.84 414.248 65.8372 412.537C65.8331 410.795 65.8883 410.181 66.1329 409.22C66.2974 408.572 66.7147 407.43 67.0602 406.682C67.4055 405.935 68.0468 404.84 68.4876 404.25C68.9284 403.661 69.7188 402.801 70.2453 402.343C70.7718 401.885 71.67 401.241 72.242 400.912C72.8141 400.583 73.5603 400.206 73.9003 400.073C74.2402 399.942 75.0485 399.707 75.6938 399.554C76.6031 399.336 77.2441 399.286 78.5265 399.332Z" fill="#288FA2"/>
</svg>
